# xmcd
#
# Track frame offsets: 
#        150
#        14495
#        28317
#        46955
#        62512
#        79556
#        94748
#        112801
#        125765
#        138266
#        152215
#        168499
#        189083
#        204876
#        221810
#        236045
#        253295
#        266012
#        281729
#        299047
#
# Disc length: 4196 seconds
#
# Revision: 1
# Processed by: cddbd v1.5.2PL0 Copyright (c) Steve Scherf et al.
# Submitted via: ExactAudioCopy v0.99pb5
#
DISCID=2c106214
DTITLE=Various Artist - Axé  Bahia  -  2009
DYEAR=2009
DGENRE=Brasil
TTITLE0=Ivet Sangalo - Cadê Dalila?
TTITLE1=Claudia Leitte - Beijar na Boca
TTITLE2=Timbalada - Pedindo para Voltar
TTITLE3=Voadois - Meu Farol
TTITLE4=Lammil e uma Noites - Tchau Have To Go Now
TTITLE5=Banda Cheiro de Amor - Dias de Sol
TTITLE6=Psirico - Gostosa
TTITLE7=Via Circular - Melhor que Ninguém
TTITLE8=Blué da Fixe - O Som que Vem da Rua
TTITLE9=Bandea Eva - Rua 15
TTITLE10=Ivete Sangalo - Dengo de Amor
TTITLE11=Tomate - E Agora
TTITLE12=Punhado de Areia
TTITLE13=Claudia Leitte - Insolação do Coração
TTITLE14=Guig Ghetto - Batidão da Guig
TTITLE15=Alexandre Peixe - Não dá Pra te Perder
TTITLE16=Babado Novo - Me Diga
TTITLE17=Vxe Mainha - Bater panela
TTITLE18=Banda Negra - Amar com Você
TTITLE19=Banda Mina - Meu Coração é Seu
EXTD=
EXTT0=
EXTT1=
EXTT2=
EXTT3=
EXTT4=
EXTT5=
EXTT6=
EXTT7=
EXTT8=
EXTT9=
EXTT10=
EXTT11=
EXTT12=
EXTT13=
EXTT14=
EXTT15=
EXTT16=
EXTT17=
EXTT18=
EXTT19=
PLAYORDER=
